<?xml version="1.0" encoding="UTF-8" standalone="no" ?>
<!DOCTYPE svg PUBLIC "-//W3C//DTD SVG 1.1//EN" "http://www.w3.org/Graphics/SVG/1.1/DTD/svg11.dtd">
<svg xmlns="http://www.w3.org/2000/svg" xmlns:xlink="http://www.w3.org/1999/xlink" version="1.1" width="1280" height="1024" viewBox="0 0 1280 1024" xml:space="preserve">
<desc>Created with Fabric.js 4.4.0</desc>
<defs>
</defs>
<g transform="matrix(1 0 0 1 640 512)" id="background-logo"  >
<rect style="stroke: none; stroke-width: 0; stroke-dasharray: none; stroke-linecap: butt; stroke-dashoffset: 0; stroke-linejoin: miter; stroke-miterlimit: 4; fill: rgb(255,255,255); fill-opacity: 0; fill-rule: nonzero; opacity: 1;"  paint-order="stroke"  x="-640" y="-512" rx="0" ry="0" width="1280" height="1024" />
</g>
<g transform="matrix(1.9211538461538462 0 0 1.9211538461538462 606.1266669677123 478.11948047084275)" id="shape-54cf7e6f-b42f-4624-a8d0-e7f1d2d42294-logo"  >
<g style=""  paint-order="stroke"   >
		<g transform="matrix(1 0 0 1 0 -1.421085e-14)" id="Layer_1"  >
<path style="stroke: none; stroke-width: 1; stroke-dasharray: none; stroke-linecap: butt; stroke-dashoffset: 0; stroke-linejoin: miter; stroke-miterlimit: 4; fill: rgb(102,103,171); fill-rule: nonzero; opacity: 1;"  paint-order="stroke"  transform=" translate(-100.02499999999999, -99.99935428546604)" d="M 191.2 100 C 191.2 97.22 193.2 93.54 195.2 90 C 198.13 84.64 201.2 79.09 199.63 73.35 C 198.03 67.35 192.51 64.03999999999999 187.16 60.78999999999999 C 183.79999999999998 58.78999999999999 180.32999999999998 56.64999999999999 179.04 54.419999999999995 C 177.75 52.19 177.57 48 177.48 44 C 177.32999999999998 37.81 177.17 31.41 172.89 27.12 C 168.60999999999999 22.830000000000002 162.2 22.67 156 22.52 C 152 22.43 147.9 22.33 145.61 21 C 143.32000000000002 19.67 141.28 16.240000000000002 139.24 12.88 C 136 7.54 132.64 2 126.68 0.41 C 120.93 -1.12 115.39000000000001 1.91 110.02000000000001 4.84 C 106.46000000000001 6.84 102.78000000000002 8.84 100.02000000000001 8.84 C 97.26 8.84 93.56000000000002 6.84 90.02000000000001 4.84 C 84.6 1.9 79.06 -1.12 73.32 0.41 C 67.36 2 64 7.53 60.76 12.88 C 58.76 16.240000000000002 56.62 19.71 54.39 21 C 52.160000000000004 22.29 48 22.43 44 22.53 C 37.81 22.67 31.41 22.830000000000002 27.12 27.12 C 22.830000000000002 31.41 22.67 37.8 22.52 44 C 22.43 48 22.33 52.11 21 54.41 C 19.67 56.709999999999994 16.240000000000002 58.739999999999995 12.88 60.769999999999996 C 7.53 64 2 67.36 0.41 73.32 C -1.12 79.07 1.91 84.62 4.85 90 C 6.789999999999999 93.56 8.85 97.24 8.85 100 C 8.85 102.76 6.85 106.46 4.85 110 C 1.9199999999999995 115.37 -1.1500000000000004 120.91 0.41999999999999993 126.66 C 2.02 132.66 7.55 135.98 12.89 139.22 C 16.25 141.22 19.72 143.35999999999999 21.009999999999998 145.59 C 22.299999999999997 147.82000000000002 22.43 152 22.52 156 C 22.669999999999998 162.19 22.83 168.59 27.11 172.88 C 31.39 177.17 37.8 177.33 44 177.48 C 48 177.57 52.09 177.67 54.39 179 C 56.69 180.33 58.72 183.76 60.76 187.12 C 64 192.47 67.36 197.99 73.32 199.59 C 74.35789732792186 199.86315996883494 75.42675897740504 200.00096917521483 76.5 200 C 81.12 200 85.61 197.55 89.98 195.16 C 93.54 193.21 97.22 191.16 99.98 191.16 C 102.74000000000001 191.16 106.44 193.16 109.98 195.16 C 114.33 197.54 118.83 200 123.49000000000001 200 C 124.55338115071804 200.00119822560058 125.61235545162452 199.86336347532384 126.64000000000001 199.59 C 132.64000000000001 197.99 135.96 192.46 139.20000000000002 187.12 C 141.20000000000002 183.76 143.34 180.29 145.57000000000002 179 C 147.80000000000004 177.71 151.98000000000002 177.57 155.97000000000003 177.48 C 162.16000000000003 177.32999999999998 168.56000000000003 177.17 172.85000000000002 172.89 C 177.14000000000001 168.60999999999999 177.29000000000002 162.2 177.44000000000003 155.98999999999998 C 177.53000000000003 151.98999999999998 177.63000000000002 147.89999999999998 178.96000000000004 145.60999999999999 C 180.29000000000005 143.32 183.72000000000003 141.27999999999997 187.08000000000004 139.23999999999998 C 192.42000000000004 135.99999999999997 197.95000000000005 132.64999999999998 199.55000000000004 126.67999999999998 C 201.08000000000004 120.92999999999998 198.05000000000004 115.38999999999999 195.12000000000003 110.01999999999998 C 193.21 106.46 191.2 102.78 191.2 100 Z M 196.39 125.83 C 195.14 130.51 190.19 133.51 185.39 136.41 C 181.67999999999998 138.66 177.83999999999997 140.99 176.11999999999998 143.95 C 174.39999999999998 146.90999999999997 174.25999999999996 151.51999999999998 174.11999999999998 155.95 C 173.98 161.48999999999998 173.84999999999997 167.20999999999998 170.49999999999997 170.57 C 167.14999999999998 173.93 161.41999999999996 174.04999999999998 155.87999999999997 174.19 C 151.47999999999996 174.29 146.87999999999997 174.4 143.87999999999997 176.19 C 140.87999999999997 177.98 138.58999999999997 181.74 136.33999999999997 185.45 C 133.43999999999997 190.23999999999998 130.43999999999997 195.19 125.74999999999997 196.45 C 125.00348494709851 196.65179609870893 124.23330403887915 196.75269316092107 123.45999999999997 196.75 C 119.63999999999997 196.75 115.51999999999997 194.49 111.53999999999996 192.31 C 107.55999999999996 190.13 103.53999999999996 187.95 99.92999999999996 187.95 C 96.31999999999996 187.95 92.24999999999997 190.17 88.31999999999996 192.32 C 83.52999999999996 194.94 78.56999999999996 197.64 74.09999999999997 196.45 C 69.42999999999996 195.2 66.42999999999996 190.25 63.51999999999997 185.45 C 61.26999999999997 181.73999999999998 58.93999999999997 177.89999999999998 55.97999999999997 176.17999999999998 C 53.01999999999997 174.45999999999998 48.39999999999997 174.31999999999996 43.97999999999997 174.17999999999998 C 38.43999999999997 174.04999999999998 32.71999999999997 173.90999999999997 29.35999999999997 170.55999999999997 C 25.99999999999997 167.20999999999998 25.87999999999997 161.47999999999996 25.73999999999997 155.93999999999997 C 25.63999999999997 151.53999999999996 25.52999999999997 146.99999999999997 23.73999999999997 143.93999999999997 C 21.94999999999997 140.87999999999997 18.18999999999997 138.64999999999998 14.47999999999997 136.39999999999998 C 9.68999999999997 133.49999999999997 4.73999999999997 130.49999999999997 3.4799999999999702 125.81999999999998 C 2.2899999999999703 121.34999999999998 4.99999999999997 116.38999999999999 7.61999999999997 111.58999999999997 C 9.75999999999997 107.66999999999997 11.97999999999997 103.58999999999997 11.97999999999997 99.98999999999998 C 11.97999999999997 96.38999999999999 9.89 92.33 7.75 88.4 C 5.13 83.60000000000001 2.42 78.64 3.6100000000000003 74.18 C 4.86 69.5 9.81 66.49000000000001 14.61 63.59 C 18.32 61.34 22.16 59.010000000000005 23.869999999999997 56.050000000000004 C 25.579999999999995 53.09 25.74 48.470000000000006 25.869999999999997 44.050000000000004 C 26.009999999999998 38.510000000000005 26.139999999999997 32.790000000000006 29.49 29.440000000000005 C 32.84 26.090000000000003 38.53 26 44.07 25.83 C 48.47 25.729999999999997 53.07 25.619999999999997 56.07 23.83 C 59.07 22.04 61.36 18.27 63.61 14.559999999999999 C 66.52 9.77 69.52 4.8199999999999985 74.19 3.5599999999999987 C 78.64999999999999 2.3699999999999988 83.61 5.0699999999999985 88.42 7.699999999999998 C 92.34 9.839999999999998 96.42 12.059999999999999 100.02 12.059999999999999 C 103.61999999999999 12.059999999999999 107.69999999999999 9.839999999999998 111.63 7.689999999999999 C 116.42 5.0699999999999985 121.36999999999999 2.3699999999999983 125.84 3.5599999999999987 C 130.53 4.809999999999999 133.53 9.759999999999998 136.43 14.559999999999999 C 138.68 18.27 141.01000000000002 22.11 143.97 23.83 C 146.92999999999998 25.549999999999997 151.55 25.689999999999998 155.97 25.83 C 161.51 25.97 167.23 26.099999999999998 170.59 29.45 C 173.95000000000002 32.8 174.07 38.53 174.21 44.07 C 174.31 48.47 174.42000000000002 53.07 176.21 56.07 C 178 59.07 181.76000000000002 61.36 185.47 63.61 C 190.26 66.52 195.21 69.52 196.47 74.2 C 197.66 78.66 194.96 83.61 192.33 88.42 C 190.19000000000003 92.34 187.97 96.42 187.97 100.02 C 187.97 103.61999999999999 190.19 107.69999999999999 192.33 111.63 C 194.87 116.4 197.58 121.36 196.39 125.83 Z" stroke-linecap="round" />
</g>
		<g transform="matrix(1 0 0 1 -0.014990172702837867 0.02447833274590039)" id="Layer_1"  >
<path style="stroke: none; stroke-width: 1; stroke-dasharray: none; stroke-linecap: butt; stroke-dashoffset: 0; stroke-linejoin: miter; stroke-miterlimit: 4; fill: rgb(102,103,171); fill-rule: nonzero; opacity: 1;"  paint-order="stroke"  transform=" translate(-100.01000982729715, -100.02383261821196)" d="M 182.93 100 C 182.93 95.11 185.45000000000002 90.49 187.93 86 C 190.08 82.06 192.3 78 191.62 75.44 C 190.89000000000001 72.69 186.62 70.1 182.86 67.82 C 178.61 65.24 174.21 62.57999999999999 171.86 58.519999999999996 C 169.51000000000002 54.46 169.34 49.19 169.22000000000003 44.169999999999995 C 169.1 39.84 169 34.91 167 33 C 165 31.090000000000003 160.13 30.93 155.78 30.83 C 150.78 30.709999999999997 145.56 30.58 141.43 28.189999999999998 C 137.3 25.799999999999997 134.71 21.459999999999997 132.14000000000001 17.189999999999998 C 129.85000000000002 13.419999999999998 127.26000000000002 9.189999999999998 124.51000000000002 8.419999999999998 C 122 7.72 117.92 10 114 12.1 C 109.52 14.55 104.9 17.1 100 17.1 C 95.1 17.1 90.49 14.580000000000002 86 12.100000000000001 C 82.4 10.100000000000001 79 8.270000000000001 76.47 8.270000000000001 C 76.1323111995004 8.267743171758017 75.79588758425433 8.311478241740007 75.47 8.400000000000002 C 72.72 9.130000000000003 70.13 13.400000000000002 67.85 17.150000000000002 C 65.27 21.410000000000004 62.60999999999999 25.800000000000004 58.55 28.150000000000002 C 54.49 30.5 49.22 30.67 44.199999999999996 30.790000000000003 C 39.84 30.9 34.91 31 33 33 C 31.090000000000003 35 30.9 39.83 30.8 44.18 C 30.68 49.18 30.55 54.41 28.16 58.54 C 25.77 62.67 21.42 65.26 17.16 67.84 C 13.4 70.12 9.16 72.71000000000001 8.4 75.46000000000001 C 7.73 78 10 82.08 12.1 86 C 14.55 90.47 17.1 95.09 17.1 100 C 17.1 104.91 14.580000000000002 109.51 12.100000000000001 114 C 9.940000000000001 117.94 7.7200000000000015 122 8.400000000000002 124.56 C 9.130000000000003 127.32000000000001 13.400000000000002 129.9 17.160000000000004 132.18 C 21.42 134.77 25.810000000000002 137.43 28.160000000000004 141.48000000000002 C 30.510000000000005 145.53000000000003 30.67 150.8 30.800000000000004 155.81000000000003 C 30.900000000000006 160.18000000000004 31.020000000000003 165.11000000000004 32.970000000000006 167.06000000000003 C 34.92000000000001 169.01000000000002 39.84 169.12000000000003 44.190000000000005 169.22000000000003 C 49.190000000000005 169.35000000000002 54.410000000000004 169.47000000000003 58.540000000000006 171.86 C 62.67000000000001 174.25 65.26 178.59 67.83000000000001 182.86 C 70.12000000000002 186.63000000000002 72.71000000000001 190.86 75.46000000000001 191.63000000000002 C 78.00000000000001 192.32000000000002 82.05000000000001 190.10000000000002 85.98 187.96000000000004 C 90.49000000000001 185.49000000000004 95.11 182.96000000000004 99.98 182.96000000000004 C 104.85000000000001 182.96000000000004 109.49000000000001 185.48000000000005 113.98 187.96000000000004 C 117.92 190.11000000000004 121.98 192.34000000000003 124.53 191.65000000000003 C 127.29 190.92000000000004 129.87 186.65000000000003 132.15 182.89000000000004 C 134.74 178.63000000000005 137.4 174.24000000000004 141.45000000000002 171.89000000000004 C 145.50000000000003 169.54000000000005 150.78000000000003 169.37000000000003 155.8 169.25000000000006 C 160.15 169.15000000000006 165.08 169.03000000000006 167.02 167.09000000000006 C 168.96 165.15000000000006 169.09 160.21000000000006 169.19 155.86000000000007 C 169.32 150.86000000000007 169.44 145.64000000000007 171.82999999999998 141.51000000000008 C 174.21999999999997 137.38000000000008 178.55999999999997 134.80000000000007 182.82999999999998 132.22000000000008 C 186.60999999999999 129.9300000000001 190.88 127.35000000000008 191.60999999999999 124.59000000000009 C 192.29 122.05000000000008 190.07 117.97000000000008 187.92 114.04000000000009 C 185.45 109.51 182.93 104.89 182.93 100 Z" stroke-linecap="round" />
</g>
</g>
</g>
<g transform="matrix(1.9211538461538462 0 0 1.9211538461538462 665.4581200926775 473.0903223554581)" id="tagline-bc003d97-5288-4a20-8bc0-8391dbab055f-logo-path-group"  >
<g style=""  paint-order="stroke"   >
		<g transform="matrix(1 0 0 1 0 0)" id="tagline-bc003d97-5288-4a20-8bc0-8391dbab055f-logo-path-0"  >
<path style="stroke: rgb(255,255,255); stroke-width: 0; stroke-dasharray: none; stroke-linecap: butt; stroke-dashoffset: 0; stroke-linejoin: miter; stroke-miterlimit: 4; fill: rgb(255,255,255); fill-rule: nonzero; opacity: 1;"  paint-order="stroke"  transform=" translate(-27.01, 25.55)" d="M 3.14 -51.1 L 3.14 0 L 5.4 0 L 5.4 -51.1 Z M 8.54 0 L 10.8 0 L 10.8 -51.1 L 8.54 -51.1 Z M 13.87 0 L 16.13 0 L 16.13 -51.1 L 13.87 -51.1 Z M 16.35 -25.55 L 34.82 0 L 37.59 0 L 19.13 -25.55 L 37.59 -51.1 L 34.82 -51.1 Z M 23.07 -25.55 L 41.54 0 L 44.24 0 L 25.84 -25.55 L 44.24 -51.1 L 41.54 -51.1 Z M 29.71 -25.55 L 48.18 0 L 50.88 0 L 32.48 -25.55 L 50.88 -51.1 L 48.18 -51.1 Z" stroke-linecap="round" />
</g>
</g>
</g>
<g transform="matrix(1.9211538461538462 0 0 1.9211538461538462 573.4249738693563 475.7950327711475)" id="text-logo-path-group"  >
<g style=""  paint-order="stroke"   >
		<g transform="matrix(1 0 0 1 0 2.842171e-14)" id="text-logo-path-0"  >
<path style="stroke: rgb(255,255,255); stroke-width: 0; stroke-dasharray: none; stroke-linecap: butt; stroke-dashoffset: 0; stroke-linejoin: miter; stroke-miterlimit: 4; fill: rgb(255,255,255); fill-rule: nonzero; opacity: 1;"  paint-order="stroke"  transform=" translate(-51.01499999999999, 60.589999999999996)" d="M 88.96 -123.33 L 88.96 -40.99 Q 88.96 -22.91 79.03 -10.38 Q 69.09 2.15 46.72 2.15 L 46.72 2.15 Q 37.59 2.15 28.91 -0.72 Q 20.23 -3.58 13.07 -9.13 L 13.07 -9.13 L 19.87 -19.33 Q 33.29 -10.92 46.54 -10.92 L 46.54 -10.92 Q 59.43 -10.92 66.41 -19.06 Q 73.39 -27.21 73.39 -41.71 L 73.39 -41.71 L 73.39 -110.62 L 36.87 -110.62 L 36.87 -123.33 L 88.96 -123.33 Z" stroke-linecap="round" />
</g>
</g>
</g>
</svg>